<?xml version="1.0" standalone="no"?>
<!DOCTYPE svg PUBLIC "-//W3C//DTD SVG 20010904//EN"
 "http://www.w3.org/TR/2001/REC-SVG-20010904/DTD/svg10.dtd">
<svg version="1.0" xmlns="http://www.w3.org/2000/svg"
 width="474.000000pt" height="474.000000pt" viewBox="0 0 474.000000 474.000000"
 preserveAspectRatio="xMidYMid meet">

<g transform="translate(0.000000,474.000000) scale(0.100000,-0.100000)"
fill="#000000" stroke="none">
<path d="M2240 4683 c-327 -22 -618 -97 -895 -233 -446 -218 -803 -562 -1039
-1002 -345 -643 -356 -1451 -29 -2102 288 -574 792 -1004 1393 -1190 257 -79
403 -100 695 -100 255 -1 382 13 580 65 540 140 960 422 1312 879 98 128 224
358 297 542 43 108 93 294 115 430 100 589 -20 1168 -343 1662 -315 481 -803
831 -1366 979 -220 58 -500 85 -720 70z m-41 -240 c32 -210 32 -197 -11 -201
-39 -3 -37 -8 -53 91 l-6 38 -52 -7 c-29 -4 -56 -10 -60 -14 -4 -4 -4 -33 2
-66 5 -32 7 -62 4 -66 -2 -5 -19 -8 -38 -8 -33 0 -34 2 -41 48 -3 26 -14 98
-24 160 -11 79 -13 115 -6 117 69 20 69 20 81 -68 6 -44 9 -48 28 -44 12 3 39
9 59 12 l37 7 -6 47 c-3 25 -7 53 -7 61 -1 12 16 19 65 29 4 0 16 -61 28 -136z
m504 111 c11 -4 17 -15 17 -35 l0 -31 -64 7 c-63 7 -63 7 -70 -21 -8 -32 5
-44 51 -44 49 0 63 -9 63 -42 l0 -30 -65 7 -65 7 0 -35 c0 -39 6 -42 95 -49
26 -3 30 -7 33 -37 l3 -34 -43 6 c-24 3 -74 9 -111 13 l-69 7 6 41 c3 23 10
86 16 141 18 163 8 149 103 141 45 -4 90 -9 100 -12z m419 -110 c88 -33 122
-72 115 -128 -8 -58 -45 -91 -105 -91 -26 0 -57 4 -70 8 -20 8 -25 3 -44 -42
-22 -54 -39 -62 -73 -37 -18 13 -18 15 0 62 66 178 97 254 103 254 4 0 37 -12
74 -26z m-1542 -52 c0 -25 -5 -29 -44 -40 -31 -8 -47 -18 -51 -33 -10 -29 9
-39 73 -39 85 0 121 -28 122 -93 0 -31 -7 -46 -33 -72 -32 -32 -129 -71 -148
-59 -14 8 -11 64 4 64 33 0 88 23 98 41 18 34 -5 49 -77 49 -52 0 -68 4 -91
24 -73 63 0 182 115 185 29 1 32 -2 32 -27z m2015 -188 c14 -9 25 -20 25 -24
0 -5 -16 -29 -35 -54 l-34 -45 46 -36 c25 -19 49 -35 52 -35 3 0 20 21 36 45
17 25 35 45 40 45 16 0 55 -30 55 -41 0 -6 -24 -42 -52 -80 -29 -37 -71 -93
-93 -123 -22 -30 -44 -55 -50 -55 -5 0 -21 9 -34 19 l-24 20 28 41 c16 22 32
42 37 45 18 11 6 34 -34 63 -23 17 -44 31 -47 31 -4 0 -22 -23 -41 -50 -19
-27 -40 -50 -45 -50 -15 0 -55 29 -55 41 0 13 183 258 193 259 4 0 19 -7 32
-16z m-936 -109 c455 -75 877 -344 1135 -724 409 -601 406 -1388 -8 -1976 -91
-129 -239 -284 -353 -371 -32 -24 -62 -48 -68 -52 -20 -17 -162 -100 -220
-130 -370 -189 -829 -232 -1245 -117 -536 149 -968 556 -1159 1092 -262 734
13 1569 661 2003 233 157 471 247 753 285 123 17 371 12 504 -10z m-1844 -293
c33 -31 75 -70 93 -87 l32 -29 44 49 c43 50 44 50 65 31 11 -11 21 -24 21 -30
0 -6 -31 -43 -70 -81 l-69 -69 -53 49 c-29 27 -83 78 -121 114 l-67 65 22 23
c12 13 26 23 32 23 6 0 38 -26 71 -58z m3280 -67 c30 -38 55 -74 55 -80 0 -6
-10 -16 -22 -24 -19 -12 -24 -10 -54 25 -18 22 -33 42 -34 47 0 14 -27 7 -45
-13 -17 -19 -17 -21 19 -65 l38 -45 -24 -20 -23 -19 -41 46 -41 47 -26 -20
c-14 -10 -27 -22 -27 -25 0 -4 18 -29 40 -56 38 -48 39 -51 21 -67 -9 -9 -22
-16 -28 -16 -11 0 -128 145 -128 159 0 13 239 201 252 198 7 -1 37 -33 68 -72z
m-3466 -264 c168 -101 159 -92 132 -129 l-22 -31 -132 81 c-73 44 -136 84
-141 89 -11 10 19 59 36 59 6 0 63 -31 127 -69z m3735 -188 c35 -84 34 -118
-5 -154 -33 -30 -58 -36 -89 -19 -15 8 -28 0 -76 -45 -31 -30 -60 -55 -65 -55
-5 0 -16 14 -25 32 l-17 32 47 41 c45 39 53 56 40 89 -5 13 -13 12 -55 -9 -57
-30 -75 -31 -82 -7 -2 9 -8 24 -11 33 -6 13 8 23 66 47 40 17 107 46 148 66
87 40 86 41 124 -51z m-3937 -123 c44 -27 55 -53 51 -123 l-3 -60 40 -14 c22
-7 43 -17 47 -21 12 -12 -12 -74 -26 -69 -6 2 -76 25 -154 52 l-144 47 7 37
c3 20 18 61 33 91 39 79 87 98 149 60z m4103 -417 c27 -155 -29 -236 -162
-236 -36 0 -66 6 -82 17 -55 35 -95 128 -96 219 0 20 3 37 8 38 4 0 63 9 132
19 69 10 139 18 156 19 l31 1 13 -77z m-4162 -114 l132 -13 0 -38 c0 -45 11
-44 -185 -23 -77 8 -143 15 -146 15 -6 0 -2 41 7 68 3 9 14 12 31 8 16 -2 88
-10 161 -17z m45 -251 c72 -85 -7 -215 -118 -194 -47 9 -95 66 -95 112 0 64
35 111 93 124 46 10 88 -5 120 -42z m4055 26 c98 -68 49 -225 -70 -224 -118 2
-163 169 -60 224 36 20 102 20 130 0z m-3951 -341 c13 -55 17 -50 -102 -115
-64 -34 -75 -43 -55 -45 14 -1 64 -5 111 -8 l86 -7 12 -37 c6 -21 11 -43 11
-49 0 -6 -46 -24 -102 -42 -57 -17 -125 -38 -152 -46 -52 -16 -60 -13 -70 28
-6 26 -4 27 76 52 46 13 99 29 118 34 29 7 14 10 -88 16 -119 8 -124 9 -133
33 -5 13 -7 28 -4 33 5 7 120 74 185 107 l25 13 -25 -4 c-14 -3 -67 -13 -117
-22 -51 -10 -95 -16 -97 -13 -2 2 -6 18 -8 34 l-3 30 145 26 c80 15 152 28
161 28 11 1 19 -14 26 -46z m3829 -40 c14 -20 25 -28 31 -22 13 13 139 24 145
13 3 -5 1 -24 -4 -41 -8 -32 -10 -33 -66 -33 -60 0 -82 -11 -82 -42 0 -20 2
-21 68 -38 33 -9 42 -15 42 -33 -1 -52 -8 -52 -167 -16 l-148 34 -3 32 c-7 71
40 170 88 185 31 10 75 -8 96 -39z m-167 -289 c2 -2 -6 -27 -18 -55 -26 -64
-26 -63 5 -77 24 -12 26 -10 49 42 20 46 27 54 45 49 32 -8 34 -26 11 -79 -12
-26 -20 -48 -19 -49 11 -9 49 -25 58 -25 6 0 20 21 32 48 30 69 36 74 63 56
l23 -15 -40 -92 c-22 -51 -42 -93 -43 -95 -6 -7 -295 124 -295 134 0 6 13 40
28 75 16 35 32 72 36 83 5 14 12 17 34 11 15 -4 29 -8 31 -11z m-3554 -103
c67 -39 96 -150 55 -216 -27 -44 -106 -85 -162 -85 -119 0 -199 145 -133 243
54 79 160 104 240 58z m3435 -155 c0 -6 -9 -26 -20 -43 l-19 -33 82 -53 c45
-29 95 -61 110 -71 27 -17 28 -17 10 -46 -9 -17 -22 -30 -28 -30 -5 0 -55 29
-110 65 -55 36 -103 65 -107 65 -3 0 -16 -16 -28 -35 -21 -34 -22 -34 -46 -18
-30 19 -30 21 47 138 58 88 63 93 85 83 13 -6 24 -16 24 -22z m-3221 -157 l23
-30 -37 -92 c-21 -51 -42 -98 -48 -105 -17 -21 4 -28 21 -7 22 26 122 105 133
105 15 0 43 -50 33 -60 -21 -20 -239 -190 -245 -190 -3 0 -16 14 -28 31 l-23
31 50 114 c27 63 48 114 46 114 -3 0 -41 -29 -87 -65 l-82 -64 -22 21 c-13 12
-22 25 -21 30 5 13 241 198 252 197 6 0 22 -14 35 -30z m3091 -176 c51 -49
101 -94 111 -101 25 -18 24 -36 -5 -65 l-25 -25 -103 27 c-57 15 -113 31 -126
35 -13 4 9 -22 55 -65 43 -40 80 -74 82 -76 9 -6 -23 -53 -36 -53 -16 0 -233
201 -233 216 0 5 13 23 29 38 l29 28 113 -30 114 -30 -72 67 c-40 36 -73 71
-73 76 0 10 30 45 40 45 4 0 49 -39 100 -87z m-2802 -144 c89 -78 92 -82 76
-100 -22 -25 -34 -24 -66 6 l-26 24 -60 -67 c-33 -37 -71 -80 -85 -97 -25 -30
-26 -30 -54 -13 -15 9 -28 21 -28 27 0 6 37 52 82 104 l81 94 -31 31 c-30 31
-30 32 -12 52 10 11 21 20 24 20 4 0 48 -37 99 -81z m2482 -78 c0 -3 -15 -16
-33 -29 -76 -53 -73 -49 -47 -77 l23 -25 45 37 45 37 19 -24 20 -24 -30 -27
c-16 -15 -38 -31 -48 -37 -17 -9 -17 -11 -1 -36 10 -14 22 -26 28 -26 6 0 33
16 59 35 46 34 48 34 65 15 9 -10 15 -23 14 -29 -5 -12 -149 -121 -160 -121
-4 0 -18 15 -30 33 -13 17 -26 34 -29 37 -5 5 -45 59 -113 152 l-27 36 83 62
82 61 18 -22 c9 -11 17 -24 17 -28z m-2246 -102 c45 -29 82 -53 84 -55 2 -1
-4 -14 -13 -28 l-17 -25 -54 34 -53 34 -16 -22 c-21 -30 -20 -32 30 -64 48
-30 52 -39 31 -68 -13 -18 -15 -18 -62 13 l-49 31 -22 -27 c-12 -15 -22 -29
-22 -32 0 -3 24 -20 54 -38 30 -18 55 -37 55 -41 0 -4 -6 -16 -14 -27 -14 -19
-15 -19 -48 0 -108 63 -140 87 -133 104 9 25 157 262 163 262 3 0 41 -23 86
-51z m1984 -50 c3 -22 -3 -28 -36 -41 -73 -28 -94 -95 -52 -163 31 -50 79 -57
142 -22 l46 26 16 -23 c14 -22 13 -25 -11 -46 -91 -79 -214 -63 -270 35 -53
93 -10 202 97 249 46 20 64 16 68 -15z m-1692 -90 c60 -29 71 -44 49 -69 -18
-20 -18 -20 -50 0 -41 25 -85 27 -85 3 0 -10 18 -38 40 -62 33 -37 40 -51 40
-87 0 -97 -113 -123 -212 -50 -32 23 -34 33 -12 57 15 16 17 16 51 -7 40 -27
75 -31 92 -10 9 11 2 25 -34 67 -57 67 -62 113 -14 153 37 32 78 33 135 5z
m1283 -225 c23 -86 41 -158 39 -159 -8 -9 -78 -16 -78 -9 0 5 -18 76 -40 157
l-39 148 22 9 c50 20 51 17 96 -146z m-966 127 c27 -11 34 -34 18 -60 -8 -12
-15 -11 -50 3 -31 12 -47 14 -61 6 -27 -14 -25 -26 7 -53 71 -58 83 -75 83
-114 -1 -62 -38 -93 -112 -93 -38 0 -128 31 -128 44 0 3 5 17 12 31 12 26 23
32 33 15 9 -14 80 -31 99 -24 29 11 17 41 -33 84 -55 46 -66 66 -56 111 14 62
98 84 188 50z m741 -46 c33 -31 36 -92 6 -120 -20 -18 -20 -19 -1 -39 11 -12
29 -43 41 -70 23 -55 18 -66 -32 -66 -22 0 -29 7 -44 46 -21 54 -38 74 -66 74
-18 0 -20 -5 -16 -67 l3 -68 -36 -3 -35 -3 -19 155 c-10 86 -16 158 -12 162
11 11 70 22 128 23 46 1 61 -3 83 -24z m-368 -23 c71 -52 73 -204 3 -269 -67
-61 -205 -38 -246 42 -50 98 4 233 100 253 49 10 109 -1 143 -26z"/>
<path d="M3078 4346 c-9 -24 -14 -47 -11 -50 11 -11 69 -6 81 6 19 19 14 55
-10 72 -34 24 -42 20 -60 -28z"/>
<path d="M2987 3769 c-23 -13 -21 -37 8 -115 56 -148 18 -210 -133 -221 -79
-6 -74 -1 -86 -87 -3 -22 -19 -61 -35 -87 -33 -54 -34 -53 42 -113 26 -20 47
-43 47 -51 0 -20 -55 -56 -74 -49 -9 3 -23 30 -32 59 -18 63 -30 76 -61 64
-30 -11 -29 -39 2 -119 30 -77 50 -100 85 -100 47 0 178 108 231 190 l16 24
23 -22 c31 -29 88 -29 118 -2 30 29 31 101 1 131 -18 18 -30 20 -70 17 l-48
-5 28 33 c24 26 31 46 36 100 10 91 1 195 -25 276 -22 71 -43 93 -73 77z"/>
<path d="M2013 3622 c-36 -23 -93 -292 -69 -330 5 -9 -4 -12 -33 -12 -53 0
-69 -7 -86 -41 -20 -37 -19 -64 2 -100 22 -37 75 -49 114 -27 26 15 27 15 32
-11 7 -34 42 -71 68 -71 11 0 63 41 121 95 55 52 105 95 109 95 14 0 10 28 -8
63 -9 18 -21 57 -27 87 l-11 55 -85 0 c-47 0 -91 4 -97 8 -17 11 -16 42 2 77
19 36 34 38 64 6 12 -13 37 -32 56 -42 28 -15 36 -16 49 -5 38 32 8 76 -95
139 -37 22 -84 28 -106 14z"/>
<path d="M2366 3474 c-74 -26 -85 -48 -28 -58 73 -13 142 -37 142 -49 0 -7
-21 -32 -46 -56 -52 -50 -109 -133 -129 -191 -15 -43 -38 -198 -55 -365 -6
-60 -15 -153 -20 -205 -5 -52 -14 -156 -20 -230 -14 -173 -17 -190 -39 -190
-10 0 -65 23 -122 51 -122 60 -171 67 -344 50 -102 -10 -114 -10 -172 10 -93
30 -118 72 -92 147 7 20 21 34 41 41 38 13 63 1 73 -36 9 -38 23 -53 43 -46
69 24 51 137 -28 178 -39 20 -66 19 -114 -5 -61 -29 -96 -89 -96 -163 0 -76
21 -110 84 -142 58 -29 131 -32 302 -12 105 13 181 8 119 -7 -163 -40 -244
-109 -261 -224 -24 -162 160 -264 277 -153 32 31 39 45 39 75 0 20 -7 50 -15
65 -13 26 -13 30 5 46 27 24 25 45 -5 78 -31 33 -38 33 -65 5 -24 -26 -25 -36
-4 -59 15 -17 15 -19 -1 -35 -16 -16 -15 -35 1 -78 9 -23 -51 -76 -86 -76 -15
0 -42 10 -61 23 -101 68 -37 231 107 273 120 34 263 -3 316 -83 87 -130 96
-393 22 -651 -32 -110 -142 -351 -165 -360 -5 -2 -9 -8 -9 -13 0 -5 113 -9
270 -9 149 0 270 2 270 5 0 3 -17 36 -38 73 -97 171 -138 335 -112 447 20 91
56 148 153 243 75 73 108 97 170 126 128 58 229 147 314 275 79 120 186 211
248 211 30 0 105 -70 105 -98 0 -22 -40 -62 -63 -62 -27 0 -47 38 -36 68 12
32 5 52 -18 52 -57 -1 -82 -91 -44 -154 44 -70 167 -62 206 14 33 63 2 164
-65 208 -36 24 -79 26 -154 7 -26 -7 -27 -6 -17 13 14 26 70 61 124 77 47 14
55 26 32 49 -22 22 -100 21 -145 -2 -51 -25 -101 -98 -180 -261 -39 -79 -73
-141 -77 -138 -3 4 0 34 7 67 23 106 3 206 -54 269 l-21 24 30 -7 c81 -19 86
-19 111 5 13 12 24 28 24 35 0 7 18 28 41 46 l40 34 -27 54 c-15 30 -38 68
-52 85 l-24 29 22 18 c12 10 35 18 51 18 32 0 46 -29 36 -78 -8 -42 3 -81 25
-88 36 -11 47 14 50 113 3 86 1 93 -22 118 -22 24 -30 26 -69 20 -52 -8 -175
-51 -209 -73 -13 -8 -31 -30 -40 -49 l-18 -34 0 40 c0 53 -34 91 -80 91 -46 0
-63 -9 -79 -41 -22 -41 -18 -73 11 -108 20 -24 34 -31 62 -32 l37 0 -40 -15
c-47 -17 -65 -38 -65 -74 0 -33 23 -55 70 -68 l35 -9 -30 -12 c-69 -28 -101
-96 -69 -150 35 -59 80 -46 69 19 -6 33 -4 38 15 43 76 20 123 -72 100 -193
-26 -138 -132 -276 -255 -334 -85 -40 -184 -46 -239 -14 -73 43 -81 69 -78
258 4 282 38 644 78 834 23 113 79 207 136 228 25 10 58 -19 58 -52 0 -37 -24
-60 -62 -60 -26 0 -29 -2 -18 -15 7 -8 24 -15 39 -15 51 1 82 45 84 118 0 40
-4 49 -33 73 l-33 28 22 36 c11 20 24 55 28 78 6 38 5 41 -10 28 -18 -14 -32
-12 -107 12 -38 12 -51 12 -84 1z"/>
<path d="M1471 3056 c-7 -8 -11 -25 -9 -38 3 -20 12 -24 74 -34 116 -20 164
-55 164 -121 0 -33 -34 -118 -51 -129 -5 -3 -9 -17 -9 -32 0 -20 12 -38 44
-65 28 -23 51 -53 61 -82 21 -54 41 -58 116 -19 65 33 79 27 79 -31 l0 -46
-77 3 -78 3 0 -29 c0 -28 3 -29 90 -51 136 -33 155 -13 137 140 -14 114 -35
174 -70 202 l-27 23 40 0 c46 1 70 16 85 54 20 55 -23 119 -79 119 -37 0 -54
-13 -77 -61 l-18 -37 -7 32 c-12 61 -102 132 -219 176 -89 34 -153 42 -169 23z"/>
<path d="M1176 2173 c-75 -40 -92 -64 -82 -115 10 -52 172 -208 216 -208 25 0
25 -4 -2 -40 -32 -44 -28 -87 10 -122 39 -34 68 -35 106 -5 22 18 30 33 32 63
1 27 7 38 16 36 52 -14 75 -13 97 6 l24 19 -27 139 c-35 180 -37 184 -80 184
-20 0 -58 9 -86 20 l-50 20 -40 -62 c-22 -33 -40 -67 -40 -73 0 -19 -26 -36
-44 -29 -9 4 -24 20 -32 36 -18 35 -15 40 53 77 41 22 48 31 48 56 0 44 -35
43 -119 -2z"/>
<path d="M3315 2114 c-37 -18 -64 -24 -105 -22 l-55 2 -10 -77 c-12 -95 -21
-105 -69 -82 -45 22 -46 40 -1 96 39 50 44 74 16 89 -28 15 -41 6 -89 -62 -55
-77 -63 -118 -30 -151 37 -37 160 -80 234 -81 l63 -1 -6 -37 c-8 -54 3 -86 37
-103 37 -19 71 -12 105 22 30 31 32 56 6 103 l-18 35 41 0 c66 0 165 53 238
128 35 35 71 78 80 95 17 29 17 31 0 52 -24 30 -38 22 -97 -58 -30 -42 -58
-69 -83 -79 -34 -14 -40 -14 -72 3 -19 11 -49 39 -67 64 -18 25 -40 55 -50 67
l-18 21 -50 -24z"/>
<path d="M1985 950 c-11 -17 3 -28 31 -22 55 10 47 -46 -15 -101 -18 -15 -29
-32 -26 -37 4 -6 33 -10 66 -10 46 0 59 3 59 15 0 10 -10 15 -30 15 -36 0 -37
4 -5 42 27 32 33 76 13 96 -15 15 -84 16 -93 2z"/>
<path d="M2175 940 c-29 -32 -26 -117 4 -141 43 -35 85 -18 101 42 23 84 -53
156 -105 99z m70 -43 c7 -35 -8 -87 -25 -87 -18 0 -33 47 -26 84 9 49 42 51
51 3z"/>
<path d="M2362 948 c-18 -18 -15 -28 8 -28 18 0 20 -7 20 -70 0 -63 2 -70 20
-70 19 0 20 7 20 90 l0 90 -28 0 c-15 0 -33 -5 -40 -12z"/>
<path d="M2527 953 c-15 -15 -5 -23 28 -23 42 0 48 -25 9 -40 -27 -11 -24 -30
6 -30 22 0 35 -30 18 -42 -7 -5 -25 -6 -40 -4 -20 4 -28 1 -28 -9 0 -8 14 -17
35 -21 63 -12 109 40 70 80 -9 9 -11 17 -5 21 14 9 13 48 -2 63 -13 13 -80 17
-91 5z"/>
<path d="M4258 3257 c-47 -18 -26 -77 27 -77 32 0 45 26 33 62 -11 30 -18 32
-60 15z"/>
<path d="M336 3081 c-26 -28 -16 -52 26 -67 34 -12 39 -11 48 6 15 27 12 45
-8 63 -24 22 -45 21 -66 -2z"/>
<path d="M4357 2725 c-49 -7 -91 -16 -94 -19 -3 -3 -2 -21 1 -40 9 -47 47 -76
100 -76 52 0 87 18 104 54 16 32 8 97 -11 95 -7 -1 -52 -7 -100 -14z"/>
<path d="M4246 1974 c-9 -8 -16 -26 -16 -38 0 -17 9 -25 37 -34 29 -9 39 -9
45 1 13 21 9 53 -10 70 -23 21 -36 21 -56 1z"/>
<path d="M504 1566 c-101 -44 -99 -156 4 -156 65 0 125 49 125 102 0 58 -60
84 -129 54z"/>
<path d="M2580 468 c0 -18 4 -39 9 -46 13 -21 54 -10 70 20 20 35 2 58 -45 58
-32 0 -34 -2 -34 -32z"/>
<path d="M2190 448 c-49 -80 -17 -178 57 -178 44 0 73 45 73 111 0 62 -28 99
-76 99 -28 0 -38 -6 -54 -32z"/>
</g>
</svg>
